<svg width="24" height="24" viewBox="0 0 24 24" fill="none" xmlns="http://www.w3.org/2000/svg">
<path d="M17.0788 12.5H5.5C5.35768 12.5 5.23878 12.4522 5.14328 12.3567C5.04776 12.2612 5 12.1423 5 12C5 11.8577 5.04776 11.7388 5.14328 11.6433C5.23878 11.5477 5.35768 11.5 5.5 11.5H17.0788L11.6404 6.06153C11.5429 5.96408 11.492 5.84933 11.4875 5.71728C11.483 5.58523 11.5359 5.46408 11.6462 5.35383C11.7564 5.24742 11.8744 5.19325 12 5.19133C12.1256 5.1894 12.2436 5.24357 12.3538 5.35383L18.4346 11.4346C18.5218 11.5218 18.583 11.6109 18.6183 11.7019C18.6535 11.7929 18.6712 11.8923 18.6712 12C18.6712 12.1077 18.6535 12.207 18.6183 12.2981C18.583 12.3891 18.5218 12.4782 18.4346 12.5654L12.3538 18.6461C12.2603 18.7397 12.1465 18.7897 12.0125 18.7961C11.8785 18.8026 11.7564 18.7526 11.6462 18.6461C11.5359 18.5359 11.4808 18.417 11.4808 18.2894C11.4808 18.1618 11.5359 18.0429 11.6462 17.9327L17.0788 12.5Z" fill="#080808"/>
</svg>
