<svg width="20" height="20" viewBox="0 0 20 20" fill="none" xmlns="http://www.w3.org/2000/svg">
<g clip-path="url(#clip0)">
<path d="M11.8323 10.0156L19.6199 2.22773C20.1268 1.72116 20.1268 0.902115 19.6199 0.395549C19.1134 -0.111016 18.2943 -0.111016 17.7878 0.395549L9.99991 8.18338L2.21229 0.395549C1.70548 -0.111016 0.886671 -0.111016 0.380104 0.395549C-0.126701 0.902115 -0.126701 1.72116 0.380104 2.22773L8.16772 10.0156L0.380104 17.8034C-0.126701 18.3099 -0.126701 19.129 0.380104 19.6356C0.632557 19.8882 0.964495 20.0152 1.2962 20.0152C1.6279 20.0152 1.9596 19.8882 2.21229 19.6356L9.99991 11.8477L17.7878 19.6356C18.0405 19.8882 18.3722 20.0152 18.7039 20.0152C19.0356 20.0152 19.3673 19.8882 19.6199 19.6356C20.1268 19.129 20.1268 18.3099 19.6199 17.8034L11.8323 10.0156Z" fill="#080808"/>
</g>
<defs>
<clipPath id="clip0">
<rect width="20" height="20" fill="white"/>
</clipPath>
</defs>
</svg>
