<svg width="211" height="175" viewBox="0 0 211 175" fill="none" xmlns="http://www.w3.org/2000/svg">
<path d="M207.667 0.656533C207.477 0.288307 207.025 0.143577 206.657 0.333269L200.656 3.42448C200.288 3.61417 200.143 4.06645 200.333 4.43467C200.522 4.8029 200.975 4.94763 201.343 4.75794L206.677 2.0102L209.424 7.34405C209.614 7.71227 210.066 7.857 210.435 7.66731C210.803 7.47762 210.948 7.02534 210.758 6.65711L207.667 0.656533ZM142.612 111.743L143.362 111.763L142.612 111.743ZM1.82245 163.823C1.44847 163.645 1.00094 163.804 0.822855 164.178C0.64477 164.552 0.803573 164.999 1.17755 165.177L1.82245 163.823ZM4.50461 166.654C4.88738 166.812 5.32601 166.63 5.48433 166.247C5.64264 165.865 5.46069 165.426 5.07793 165.268L4.50461 166.654ZM11.8136 167.703C11.4185 167.579 10.9973 167.798 10.8729 168.193C10.7485 168.588 10.9678 169.01 11.3629 169.134L11.8136 167.703ZM18.3964 171.07C18.7993 171.166 19.2038 170.917 19.2998 170.514C19.3959 170.111 19.1471 169.707 18.7442 169.611L18.3964 171.07ZM25.7877 171.06C25.3797 170.988 24.9911 171.261 24.9197 171.669C24.8483 172.077 25.1212 172.466 25.5293 172.537L25.7877 171.06ZM32.7228 173.592C33.1341 173.641 33.5074 173.348 33.5565 172.936C33.6056 172.525 33.312 172.152 32.9007 172.103L32.7228 173.592ZM40.0733 172.775C39.6601 172.747 39.3021 173.059 39.2736 173.472C39.2452 173.885 39.5572 174.243 39.9704 174.272L40.0733 172.775ZM47.2376 174.597C47.6518 174.605 47.9945 174.276 48.0031 173.862C48.0118 173.448 47.6831 173.105 47.269 173.097L47.2376 174.597ZM54.4659 173.079C54.0518 173.09 53.7248 173.434 53.7355 173.848C53.7462 174.262 54.0905 174.589 54.5046 174.578L54.4659 173.079ZM61.7671 174.222C62.1802 174.192 62.4908 173.832 62.4608 173.419C62.4307 173.006 62.0715 172.695 61.6584 172.725L61.7671 174.222ZM68.8257 172.033C68.4145 172.083 68.1215 172.457 68.1712 172.868C68.2209 173.279 68.5946 173.572 69.0058 173.522L68.8257 172.033ZM76.2017 172.471C76.6099 172.401 76.8839 172.013 76.8138 171.605C76.7436 171.197 76.3558 170.923 75.9476 170.993L76.2017 172.471ZM83.0074 169.588C82.6035 169.68 82.3503 170.082 82.442 170.486C82.5337 170.89 82.9355 171.143 83.3395 171.051L83.0074 169.588ZM90.3902 169.24C90.7882 169.125 91.0179 168.709 90.9032 168.311C90.7885 167.913 90.3729 167.683 89.9749 167.798L90.3902 169.24ZM96.8139 165.596C96.4239 165.736 96.2208 166.165 96.3603 166.555C96.4999 166.945 96.9291 167.148 97.3191 167.008L96.8139 165.596ZM104.09 164.321C104.469 164.154 104.641 163.712 104.475 163.332C104.308 162.953 103.866 162.781 103.487 162.947L104.09 164.321ZM109.945 159.808C109.58 160.004 109.443 160.458 109.639 160.823C109.835 161.188 110.29 161.325 110.655 161.129L109.945 159.808ZM116.926 157.396C117.272 157.168 117.367 156.703 117.139 156.357C116.911 156.011 116.446 155.916 116.1 156.144L116.926 157.396ZM121.866 151.913C121.545 152.175 121.498 152.648 121.76 152.968C122.022 153.289 122.495 153.336 122.816 153.074L121.866 151.913ZM128.21 148.124C128.498 147.827 128.49 147.352 128.193 147.064C127.895 146.776 127.42 146.783 127.132 147.081L128.21 148.124ZM131.756 141.653C131.508 141.985 131.577 142.455 131.909 142.703C132.242 142.95 132.711 142.881 132.959 142.549L131.756 141.653ZM136.92 136.383C137.119 136.019 136.986 135.564 136.622 135.365C136.259 135.166 135.803 135.299 135.604 135.662L136.92 136.383ZM138.568 129.189C138.423 129.577 138.62 130.009 139.008 130.154C139.396 130.299 139.828 130.102 139.973 129.714L138.568 129.189ZM142.051 122.675C142.14 122.271 141.885 121.871 141.48 121.781C141.076 121.692 140.676 121.947 140.586 122.352L142.051 122.675ZM141.659 115.322C141.622 115.734 141.928 116.098 142.34 116.134C142.753 116.17 143.117 115.865 143.153 115.452L141.659 115.322ZM143.375 108.028C143.367 107.613 143.025 107.284 142.611 107.293C142.197 107.301 141.868 107.643 141.876 108.057L143.375 108.028ZM141.353 100.793C141.406 101.204 141.782 101.494 142.193 101.441C142.604 101.389 142.894 101.013 142.841 100.602L141.353 100.793ZM141.415 93.2901C141.308 92.89 140.897 92.6528 140.497 92.7603C140.096 92.8677 139.859 93.2791 139.967 93.6791L141.415 93.2901ZM137.538 86.8891C137.711 87.2654 138.156 87.4301 138.533 87.257C138.909 87.0839 139.074 86.6385 138.901 86.2622L137.538 86.8891ZM135.088 79.7972C134.841 79.4653 134.371 79.3972 134.039 79.6451C133.707 79.893 133.639 80.363 133.887 80.6948L135.088 79.7972ZM128.937 75.5428C129.261 75.8013 129.733 75.7484 129.991 75.4247C130.25 75.101 130.197 74.629 129.873 74.3706L128.937 75.5428ZM123.337 70.5784C122.951 70.4291 122.517 70.6213 122.367 71.0077C122.218 71.3941 122.41 71.8283 122.797 71.9776L123.337 70.5784ZM115.891 70.6781C116.305 70.6707 116.635 70.329 116.628 69.9149C116.62 69.5007 116.278 69.171 115.864 69.1784L115.891 70.6781ZM108.502 71.4407C108.17 71.688 108.101 72.1578 108.348 72.4901C108.595 72.8225 109.065 72.8914 109.397 72.6442L108.502 71.4407ZM106.587 78.3805C106.582 77.9663 106.242 77.6345 105.828 77.6394C105.414 77.6443 105.082 77.984 105.087 78.3982L106.587 78.3805ZM107.616 85.393C107.884 85.7087 108.358 85.7472 108.673 85.479C108.989 85.2108 109.028 84.7374 108.759 84.4218L107.616 85.393ZM114.038 87.7941C113.646 87.6602 113.22 87.8694 113.086 88.2613C112.952 88.6533 113.161 89.0796 113.553 89.2136L114.038 87.7941ZM120.377 90.3945C120.791 90.4107 121.14 90.0883 121.156 89.6744C121.172 89.2605 120.85 88.9119 120.436 88.8956L120.377 90.3945ZM127.037 88.5109C126.627 88.5703 126.343 88.9508 126.403 89.3607C126.462 89.7707 126.843 90.0548 127.252 89.9953L127.037 88.5109ZM133.931 88.5468C134.329 88.4333 134.56 88.0183 134.446 87.6199C134.333 87.2216 133.918 86.9907 133.52 87.1042L133.931 88.5468ZM139.795 84.9347C139.411 85.0902 139.226 85.5275 139.381 85.9114C139.537 86.2953 139.974 86.4805 140.358 86.325L139.795 84.9347ZM146.538 83.479C146.906 83.2891 147.051 82.8368 146.861 82.4686C146.671 82.1005 146.219 81.956 145.85 82.1459L146.538 83.479ZM151.662 78.8378C151.311 79.0568 151.203 79.5194 151.422 79.8709C151.641 80.2225 152.104 80.3299 152.456 80.1109L151.662 78.8378ZM158.079 76.311C158.414 76.0669 158.488 75.5977 158.243 75.263C157.999 74.9284 157.53 74.855 157.196 75.099L158.079 76.311ZM162.458 70.9805C162.14 71.2464 162.098 71.7195 162.364 72.037C162.63 72.3546 163.103 72.3964 163.421 72.1305L162.458 70.9805ZM168.491 67.6045C168.792 67.3193 168.804 66.8446 168.519 66.5442C168.234 66.2438 167.759 66.2315 167.459 66.5167L168.491 67.6045ZM172.185 61.7567C171.902 62.0589 171.917 62.5335 172.22 62.8168C172.522 63.1001 172.996 63.0848 173.28 62.7826L172.185 61.7567ZM177.77 57.7206C178.036 57.4034 177.995 56.9303 177.678 56.6639C177.361 56.3975 176.888 56.4386 176.621 56.7557L177.77 57.7206ZM180.793 51.5207C180.543 51.851 180.608 52.3214 180.939 52.5712C181.269 52.8211 181.74 52.7558 181.989 52.4254L180.793 51.5207ZM185.941 46.9254C186.174 46.5833 186.087 46.1167 185.744 45.8831C185.402 45.6496 184.936 45.7376 184.702 46.0797L185.941 46.9254ZM188.353 40.4573C188.136 40.8097 188.245 41.2718 188.597 41.4895C188.95 41.7072 189.412 41.5979 189.63 41.2455L188.353 40.4573ZM193.062 35.4069C193.264 35.0454 193.135 34.5884 192.774 34.3862C192.412 34.1839 191.955 34.313 191.753 34.6745L193.062 35.4069ZM194.909 28.7492C194.722 29.1187 194.869 29.57 195.239 29.7573C195.608 29.9445 196.06 29.7968 196.247 29.4274L194.909 28.7492ZM199.193 23.3217C199.365 22.9453 199.2 22.5 198.824 22.3272C198.447 22.1545 198.002 22.3196 197.829 22.696L199.193 23.3217ZM200.518 16.538C200.36 16.9206 200.541 17.3594 200.923 17.5182C201.306 17.6771 201.745 17.4957 201.904 17.1131L200.518 16.538ZM204.38 10.8395C204.526 10.4516 204.329 10.0193 203.941 9.87388C203.554 9.72844 203.121 9.92494 202.976 10.3128L204.38 10.8395ZM205.224 4.00039C205.091 4.39282 205.302 4.81841 205.694 4.95098C206.087 5.08355 206.512 4.8729 206.645 4.48047L205.224 4.00039ZM1.17755 165.177C2.25234 165.689 3.36221 166.181 4.50461 166.654L5.07793 165.268C3.95846 164.805 2.87251 164.323 1.82245 163.823L1.17755 165.177ZM11.3629 169.134C13.6215 169.846 15.9708 170.491 18.3964 171.07L18.7442 169.611C16.351 169.04 14.0362 168.403 11.8136 167.703L11.3629 169.134ZM25.5293 172.537C27.8774 172.948 30.2789 173.3 32.7228 173.592L32.9007 172.103C30.4829 171.814 28.1083 171.466 25.7877 171.06L25.5293 172.537ZM39.9704 174.272C42.3669 174.437 44.7925 174.545 47.2376 174.597L47.269 173.097C44.8475 173.046 42.4458 172.939 40.0733 172.775L39.9704 174.272ZM54.5046 174.578C56.9184 174.516 59.3421 174.398 61.7671 174.222L61.6584 172.725C59.257 172.9 56.8566 173.017 54.4659 173.079L54.5046 174.578ZM69.0058 173.522C71.4146 173.231 73.8162 172.881 76.2017 172.471L75.9476 170.993C73.5873 171.399 71.2104 171.745 68.8257 172.033L69.0058 173.522ZM83.3395 171.051C85.718 170.511 88.0713 169.908 90.3902 169.24L89.9749 167.798C87.6845 168.458 85.3591 169.054 83.0074 169.588L83.3395 171.051ZM97.3191 167.008C99.6252 166.184 101.885 165.288 104.09 164.321L103.487 162.947C101.316 163.9 99.0886 164.783 96.8139 165.596L97.3191 167.008ZM110.655 161.129C112.82 159.966 114.914 158.722 116.926 157.396L116.1 156.144C114.128 157.444 112.073 158.665 109.945 159.808L110.655 161.129ZM122.816 153.074C124.72 151.517 126.523 149.867 128.21 148.124L127.132 147.081C125.488 148.78 123.728 150.39 121.866 151.913L122.816 153.074ZM132.959 142.549C134.416 140.592 135.741 138.537 136.92 136.383L135.604 135.662C134.459 137.754 133.172 139.751 131.756 141.653L132.959 142.549ZM139.973 129.714C140.816 127.461 141.512 125.115 142.051 122.675L140.586 122.352C140.062 124.723 139.386 127.002 138.568 129.189L139.973 129.714ZM143.153 115.452C143.259 114.243 143.329 113.013 143.362 111.763L141.862 111.723C141.83 112.943 141.762 114.143 141.659 115.322L143.153 115.452ZM143.362 111.763C143.395 110.485 143.399 109.24 143.375 108.028L141.876 108.057C141.899 109.246 141.895 110.468 141.862 111.723L143.362 111.763ZM142.841 100.602C142.505 97.9844 142.022 95.5495 141.415 93.2901L139.967 93.6791C140.555 95.8702 141.025 98.2388 141.353 100.793L142.841 100.602ZM138.901 86.2622C137.781 83.8277 136.493 81.6779 135.088 79.7972L133.887 80.6948C135.226 82.4882 136.46 84.5467 137.538 86.8891L138.901 86.2622ZM129.873 74.3706C127.757 72.6815 125.54 71.4296 123.337 70.5784L122.797 71.9776C124.854 72.7726 126.938 73.9471 128.937 75.5428L129.873 74.3706ZM115.864 69.1784C113.013 69.2292 110.432 70.0044 108.502 71.4407L109.397 72.6442C111.025 71.4333 113.282 70.7246 115.891 70.6781L115.864 69.1784ZM105.087 78.3982C105.101 79.6032 105.336 80.8907 105.809 82.2472L107.225 81.7528C106.798 80.5295 106.599 79.403 106.587 78.3805L105.087 78.3982ZM105.809 82.2472C106.215 83.4086 106.824 84.4608 107.616 85.393L108.759 84.4218C108.084 83.6267 107.568 82.7354 107.225 81.7528L105.809 82.2472ZM113.553 89.2136C115.552 89.8966 117.848 90.2953 120.377 90.3945L120.436 88.8956C118.025 88.8011 115.876 88.4222 114.038 87.7941L113.553 89.2136ZM127.252 89.9953C129.38 89.6868 131.614 89.2069 133.931 88.5468L133.52 87.1042C131.263 87.7473 129.095 88.2125 127.037 88.5109L127.252 89.9953ZM140.358 86.325C142.378 85.5069 144.443 84.56 146.538 83.479L145.85 82.1459C143.794 83.2066 141.772 84.1342 139.795 84.9347L140.358 86.325ZM152.456 80.1109C154.318 78.9506 156.195 77.6852 158.079 76.311L157.196 75.099C155.34 76.4521 153.493 77.6971 151.662 78.8378L152.456 80.1109ZM163.421 72.1305C165.113 70.7128 166.806 69.205 168.491 67.6045L167.459 66.5167C165.795 68.0959 164.126 69.583 162.458 70.9805L163.421 72.1305ZM173.28 62.7826C174.788 61.1737 176.286 59.487 177.77 57.7206L176.621 56.7557C175.155 58.5015 173.675 60.1678 172.185 61.7567L173.28 62.7826ZM181.989 52.4254C183.323 50.6614 184.642 48.8285 185.941 46.9254L184.702 46.0797C183.416 47.9629 182.112 49.7761 180.793 51.5207L181.989 52.4254ZM189.63 41.2455C190.794 39.3609 191.939 37.4151 193.062 35.4069L191.753 34.6745C190.64 36.6641 189.506 38.5912 188.353 40.4573L189.63 41.2455ZM196.247 29.4274C197.25 27.4474 198.233 25.4125 199.193 23.3217L197.829 22.696C196.878 24.7693 195.904 26.7867 194.909 28.7492L196.247 29.4274ZM201.904 17.1131C202.751 15.0711 203.578 12.9801 204.38 10.8395L202.976 10.3128C202.179 12.4374 201.359 14.5122 200.518 16.538L201.904 17.1131ZM206.645 4.48047C207.007 3.40812 207.364 2.32419 207.714 1.22858L206.286 0.771418C205.938 1.8594 205.584 2.9357 205.224 4.00039L206.645 4.48047Z" fill="#DAD7F7"/>
</svg>
